<?xml version="1.0" standalone="no"?>
<!DOCTYPE svg PUBLIC "-//W3C//DTD SVG 20010904//EN"
 "http://www.w3.org/TR/2001/REC-SVG-20010904/DTD/svg10.dtd">
<svg version="1.0" xmlns="http://www.w3.org/2000/svg"
 width="260.000000pt" height="260.000000pt" viewBox="0 0 260.000000 260.000000"
 preserveAspectRatio="xMidYMid meet">
<metadata>
Created by potrace 1.11, written by Peter Selinger 2001-2013
</metadata>
<g transform="translate(0.000000,260.000000) scale(0.100000,-0.100000)"
fill="#000000" stroke="none">
<path d="M720 1963 c-62 -10 -184 -58 -237 -92 -154 -99 -267 -273 -310 -475
-22 -107 -14 -270 20 -365 62 -175 186 -297 364 -357 195 -66 504 -6 647 126
l46 43 0 286 c0 157 -4 291 -8 298 -6 9 -68 10 -259 4 -139 -4 -254 -9 -257
-12 -2 -2 -7 -61 -11 -131 l-8 -128 107 0 106 0 0 -35 c0 -46 -31 -66 -113
-72 -82 -6 -139 22 -182 92 -28 45 -30 55 -30 144 0 80 4 103 23 138 53 101
151 161 275 170 64 5 179 -7 220 -23 11 -4 16 16 21 93 4 54 9 130 13 169 l6
72 -54 20 c-94 35 -278 52 -379 35z"/>
<path d="M1346 1889 c-8 -108 -28 -1260 -22 -1266 3 -3 83 -2 179 2 l175 7 6
46 c3 24 7 99 7 166 2 202 -6 203 144 -9 71 -102 130 -185 132 -185 11 0 397
70 399 73 2 2 -75 140 -171 307 -96 168 -175 308 -175 312 0 4 94 137 209 295
114 159 205 289 202 290 -9 3 -379 33 -410 33 -25 0 -41 -21 -160 -205 -73
-113 -134 -205 -135 -205 -1 0 4 69 11 153 6 83 12 171 12 193 l1 42 -72 6
c-40 3 -130 9 -200 12 l-126 7 -6 -74z"/>
</g>
</svg>
