<?xml version="1.0" encoding="utf-8"?>
<!-- Generator: Adobe Illustrator 26.3.1, SVG Export Plug-In . SVG Version: 6.00 Build 0)  -->
<svg version="1.1" id="Layer_1" xmlns="http://www.w3.org/2000/svg" xmlns:xlink="http://www.w3.org/1999/xlink" x="0px" y="0px"
	 viewBox="0 0 956.98 566.82" style="enable-background:new 0 0 956.98 566.82;" xml:space="preserve">
<style type="text/css">
	.st0{fill:#FFFFFF;}
</style>
<path class="st0" d="M447.99,78.98c-21.7-16.23-44.98-29.56-70.1-39.6c-28.49-11.4-61.85-17.64-100.04-18.79L93.54,191.49
	L251.97,20.63c-33.15,1.32-64.2,7.82-93.03,19.43c-32.59,13.16-60.57,31.35-83.93,54.59c-23.37,23.28-41.69,50.49-55.02,81.71
	C6.66,207.59,0,241.08,0,276.75v1.41c0,28.96,4.1,56,12.17,81.2l75.43-64.8L18.07,375.5c0.81,1.92,1.54,3.93,2.39,5.85
	C34.04,412.58,52.84,439.45,76.8,462c0.38,0.34,0.77,0.68,1.15,1.03l92.95-92.99c-8.93-10.46-16.19-22.51-21.53-36.22
	c-6.62-16.91-9.91-35.24-9.91-54.97v-1.41c0-18.75,3.29-36.35,9.87-52.79c6.58-16.45,15.5-30.75,26.78-42.97
	c11.28-12.22,24.52-21.83,39.81-28.88c15.25-7.05,31.78-10.59,49.64-10.59c24.39,0,45.87,4.01,64.46,12
	c7.99,3.42,15.89,7.65,23.75,12.43l-26.27,46.86L482.25,58.73v-5.17L447.99,78.98z M349.45,235.19l8.24-22.04l-22.04,22.04
	L200.67,370.21l55.02-39.3v4.31h83.51l100.04-100.04H349.45z M826.74,333.56l-44.42,35.24l36.78-46.35l-34.47-50.19l49.25-76.25
	l-179.36,179.4l29.6-12.81l82.1,121.31l61.08-52.2l-53.78,62.96l19.35,28.58h164.11L826.74,333.56z M482.25,30.24v23.32l19.99-14.82
	l-19.99,19.99v110.63l-35.97,58.78L618.89,55.53V30.24H482.25z M506.64,523.26l-43.53,43.57l77.66-43.57h78.13V411L506.64,523.26z
	 M950.66,30.24l-141,160.14L482.25,517.79v-89.02l128.61-137.54L482.51,410.92v0.04l-0.26,0.21L366.06,519.54
	c-29.64,9.1-62.23,13.58-97.69,13.58c-1.66,0-3.33-0.09-5-0.09l161.97-171.63L244.2,532.23c-29.35-2.09-56.85-7.99-82.52-17.77
	c-19.01-7.22-36.48-16.19-52.5-26.87l-56.9,30.97L185.94,384.9c9.99,8.33,21.23,15.16,33.74,20.38
	c16.23,6.83,34.26,10.21,54.08,10.21c32.04,0,58.39-6.79,79.15-20.42v-43.65l116.23-116.23l13.11-13.16L655.59,48.74
	c-1.15,1.71-19.61,29.73-36.69,56.04v73.98l-145.7,145.49l145.7-127.76v33.79L788.64,30.24L818.88,0l-14.82,30.24h95.3
	L764.81,166.93L913.07,30.24H950.66z"/>
</svg>
